<svg xmlns="http://www.w3.org/2000/svg" xmlns:xlink="http://www.w3.org/1999/xlink" width="132" zoomAndPan="magnify" viewBox="0 0 98.88 98.999996" height="132" preserveAspectRatio="xMidYMid meet" version="1.0"><defs><clipPath id="3feb6dbf16"><path d="M 0 0.0820312 L 98.761719 0.0820312 L 98.761719 98.90625 L 0 98.90625 Z M 0 0.0820312 " clip-rule="nonzero"/></clipPath></defs><path fill="#ffffff" d="M 70.382812 47.136719 C 66.316406 44.007812 62.253906 40.882812 58.1875 37.757812 C 52.8125 33.625 47.441406 29.492188 42.066406 25.359375 C 41.042969 24.570312 39.78125 23.222656 38.539062 22.777344 C 37.289062 22.332031 35.0625 22.757812 35.0625 24.414062 C 35.0625 24.914062 35.0625 25.414062 35.0625 25.914062 C 35.0625 38.84375 35.0625 51.773438 35.0625 64.703125 C 35.0625 67.992188 35.0625 71.28125 35.0625 74.570312 C 34.949219 74.914062 35.019531 75.300781 35.398438 75.617188 C 35.433594 75.648438 35.472656 75.683594 35.515625 75.707031 C 37.605469 77.351562 39.308594 75.816406 40.988281 74.523438 C 43.136719 72.871094 45.28125 71.222656 47.429688 69.570312 C 53.15625 65.167969 58.882812 60.761719 64.613281 56.355469 C 66.378906 55 68.140625 53.644531 69.90625 52.285156 C 70.335938 51.953125 70.898438 51.605469 71.167969 51.132812 C 71.972656 49.714844 71.667969 48.125 70.382812 47.136719 " fill-opacity="1" fill-rule="nonzero"/><g clip-path="url(#3feb6dbf16)"><path fill="#ffffff" d="M 84.65625 77.328125 C 78.449219 85.140625 69.789062 90.691406 60.109375 93.105469 C 50.253906 95.558594 39.550781 94.476562 30.367188 90.148438 C 21.382812 85.910156 14.066406 78.753906 9.488281 69.957031 C 4.804688 60.941406 3.457031 50.292969 5.515625 40.367188 C 7.546875 30.566406 12.898438 21.769531 20.476562 15.261719 C 28.054688 8.757812 37.871094 5.066406 47.820312 4.699219 C 58.042969 4.320312 68.042969 7.527344 76.269531 13.5625 C 87.601562 21.882812 94.242188 35.546875 94.289062 49.527344 C 94.257812 59.558594 90.914062 69.453125 84.65625 77.328125 Z M 89.179688 20.136719 C 82.953125 11.765625 74.238281 5.546875 64.304688 2.363281 C 54.144531 -0.894531 42.855469 -0.628906 32.824219 2.953125 C 23.003906 6.460938 14.578125 13.0625 8.636719 21.605469 C 2.605469 30.273438 -0.355469 40.9375 0.0351562 51.460938 C 0.429688 62.105469 4.367188 72.257812 10.972656 80.570312 C 24.273438 97.3125 47.976562 103.398438 67.761719 95.445312 C 76.871094 91.78125 84.636719 85.5 90.234375 77.449219 C 95.898438 69.308594 98.84375 59.417969 98.878906 49.527344 C 98.84375 38.988281 95.480469 28.605469 89.179688 20.136719 " fill-opacity="1" fill-rule="nonzero"/></g></svg>